<svg id="Capa_1" enable-background="new 0 0 512 512" height="512" viewBox="0 0 512 512" width="512" xmlns="http://www.w3.org/2000/svg"><g><g id="Page-1_30_"><g id="_x30_31---WASD"><path id="Shape_182_" d="m291.226 92.228c-2.245-.29-4.514.324-6.306 1.706-1.792 1.383-2.962 3.421-3.251 5.666l-4.335 33.399-14.78-17.92c-1.674-1.873-4.067-2.944-6.579-2.944s-4.905 1.071-6.579 2.944l-14.78 17.92-4.267-33.399c-.603-4.675-4.882-7.976-9.557-7.373s-7.976 4.882-7.373 9.557l6.827 52.907c.434 3.373 2.829 6.166 6.097 7.109 3.267.943 6.783-.143 8.948-2.766l20.709-25.061 20.727 25.105c1.63 1.946 4.041 3.066 6.579 3.055.802-.002 1.6-.114 2.372-.333 3.265-.944 5.659-3.737 6.093-7.108l6.827-52.907c.29-2.245-.324-4.514-1.706-6.306-1.383-1.792-3.421-2.961-5.666-3.251z"/><path id="Shape_181_" d="m55.586 323.192c1.978 1.1 4.312 1.369 6.488.748s4.017-2.081 5.117-4.059l11.785-21.214h34.338l6.588 19.763c1.489 4.477 6.326 6.899 10.803 5.41s6.899-6.326 5.41-10.803l-25.6-76.8c-1.069-3.212-3.934-5.488-7.305-5.803-3.374-.333-6.621 1.38-8.252 4.352l-42.667 76.8c-2.292 4.115-.818 9.309 3.295 11.606zm44.851-63.147 7.185 21.555h-19.165z"/><path id="Shape_180_" d="m256 268.8c-10.061 0-17.067-5.623-17.067-10.667 0-5.043 7.006-10.667 17.067-10.667s17.067 5.623 17.067 10.667c0 4.713 3.82 8.533 8.533 8.533s8.533-3.821 8.533-8.533c0-15.548-14.993-27.733-34.133-27.733s-34.133 12.186-34.133 27.733c0 15.548 14.993 27.733 34.133 27.733 10.061 0 17.067 5.623 17.067 10.667 0 5.043-7.006 10.667-17.067 10.667s-17.067-5.623-17.067-10.667c0-4.713-3.821-8.533-8.533-8.533s-8.533 3.821-8.533 8.533c0 15.548 14.993 27.733 34.133 27.733s34.133-12.186 34.133-27.733-14.993-27.733-34.133-27.733z"/><path id="Shape_179_" d="m384.051 316.672c.478 4.323 4.132 7.595 8.482 7.595h17.067c11.784.915 23.37-3.427 31.65-11.861 7.364-8.548 11.29-19.526 11.017-30.805-.028-28.265-22.935-51.172-51.2-51.2h-17.067c-2.427 0-4.739 1.033-6.358 2.841s-2.391 4.219-2.125 6.631zm17.016-69.205c18.851 0 34.133 15.282 34.133 34.133.225 7.041-2.12 13.923-6.596 19.362-5.07 4.839-12.053 7.131-19.004 6.238h-9.387l-6.639-59.733z"/><path id="Shape_178_" d="m488.661 217.66c-2.027-12.361-12.724-21.424-25.25-21.393h-122.521l-6.434-120.243c-.566-13.75-11.789-24.654-25.549-24.824h-105.814c-13.763.165-24.991 11.071-25.557 24.823l-6.426 120.243h-122.521c-12.526-.031-23.223 9.032-25.25 21.393l-23.219 139.333c-.083.465-.123.936-.12 1.408v76.8c0 14.138 11.462 25.6 25.6 25.6h128c6.392-.029 12.538-2.467 17.212-6.827 4.902 4.383 11.242 6.812 17.818 6.827h134.784c6.575-.015 12.916-2.444 17.818-6.827 4.663 4.35 10.792 6.787 17.169 6.827h128c14.138 0 25.6-11.462 25.6-25.6v-76.8c.003-.472-.037-.943-.119-1.408zm-16.836 2.807 21.572 129.399h-143.991l-7.586-136.533h121.591c4.172.002 7.73 3.02 8.414 7.134zm-284.552-7.134h137.455l7.586 136.533h-152.627zm7.287-136.396c.084-4.7 3.835-8.512 8.533-8.67h105.813c4.699.158 8.45 3.969 8.533 8.67l6.357 119.33h-135.593zm-154.385 143.53c.684-4.115 4.243-7.132 8.414-7.134h121.591l-7.586 136.533h-143.991zm113.425 223.266h-128c-4.713 0-8.533-3.821-8.533-8.533v-68.267h145.067v68.267c-.001 4.713-3.821 8.533-8.534 8.533zm169.813 0h-134.784c-4.953.227-9.163-3.582-9.429-8.533v-68.267h153.6v68.267c-.267 4.934-4.45 8.737-9.387 8.533zm162.987 0h-128c-4.713 0-8.533-3.821-8.533-8.533v-68.267h145.067v68.267c-.001 4.713-3.821 8.533-8.534 8.533z"/><path id="Shape_177_" d="m68.267 409.6h-17.067v-17.067c0-4.713-3.821-8.533-8.533-8.533s-8.533 3.82-8.533 8.533v25.6c0 4.713 3.821 8.533 8.533 8.533h25.6c4.713 0 8.533-3.82 8.533-8.533s-3.82-8.533-8.533-8.533z"/></g></g></g></svg>