<svg id="Capa_1" enable-background="new 0 0 512 512" height="512" viewBox="0 0 512 512" width="512" xmlns="http://www.w3.org/2000/svg"><g><path d="m474.5 139.5h-437c-20.678 0-37.5 16.822-37.5 37.5v158c0 20.678 16.822 37.5 37.5 37.5h389.71c4.142 0 7.5-3.358 7.5-7.5s-3.358-7.5-7.5-7.5h-389.71c-3.469 0-6.757-.79-9.695-2.199l12.939-12.939c.575.081 1.158.138 1.756.138h427c.597 0 1.18-.057 1.756-.138l12.939 12.939c-2.938 1.409-6.225 2.199-9.695 2.199h-12.29c-4.142 0-7.5 3.358-7.5 7.5s3.358 7.5 7.5 7.5h12.29c20.678 0 37.5-16.822 37.5-37.5v-158c0-20.678-16.822-37.5-37.5-37.5zm-437 110.5c-4.142 0-7.5 3.358-7.5 7.5v72.5c0 .597.057 1.18.138 1.756l-12.939 12.939c-1.409-2.938-2.199-6.226-2.199-9.695v-158c0-3.469.79-6.757 2.199-9.695l12.939 12.939c-.081.576-.138 1.159-.138 1.756v40.5c0 4.142 3.358 7.5 7.5 7.5s7.5-3.358 7.5-7.5v-38h422v143h-422v-70c0-4.142-3.358-7.5-7.5-7.5zm444.362-69.756 12.939-12.939c1.409 2.938 2.199 6.226 2.199 9.695v158c0 3.469-.79 6.757-2.199 9.694l-12.939-12.939c.081-.575.138-1.158.138-1.755v-148c0-.597-.057-1.18-.138-1.756zm-7.362-25.744c3.469 0 6.757.79 9.695 2.199l-12.939 12.939c-.575-.081-1.158-.138-1.756-.138h-427c-.597 0-1.18.057-1.756.138l-12.939-12.939c2.937-1.408 6.225-2.199 9.695-2.199z"/><path d="m68.058 265h12.442v35c0 6.893 5.607 12.5 12.5 12.5h33c6.893 0 12.5-5.607 12.5-12.5v-35h12.442c8.026.266 12.62-10.209 6.99-15.933l.001.001-41.442-45.046c-3.571-4.051-10.412-4.051-13.982 0l-41.441 45.045c-5.631 5.725-1.034 16.199 6.99 15.933zm41.442-46.423 28.909 31.423h-2.409c-6.893 0-12.5 5.607-12.5 12.5v35h-28v-35c0-6.893-5.607-12.5-12.5-12.5h-2.409z"/><path d="m325.467 294.5c4.142 0 7.5-3.358 7.5-7.5v-62c0-4.142-3.358-7.5-7.5-7.5s-7.5 3.358-7.5 7.5v62c0 4.142 3.358 7.5 7.5 7.5z"/><path d="m253.073 294.5c4.142 0 7.5-3.358 7.5-7.5v-24.563h27.905v24.563c0 4.142 3.358 7.5 7.5 7.5s7.5-3.358 7.5-7.5v-62c0-4.142-3.358-7.5-7.5-7.5s-7.5 3.358-7.5 7.5v22.437h-27.905v-22.437c0-4.142-3.358-7.5-7.5-7.5s-7.5 3.358-7.5 7.5v62c0 4.142 3.358 7.5 7.5 7.5z"/><path d="m355.22 294.273c4.142 0 7.5-3.358 7.5-7.5v-23.856h15.463c4.142 0 7.5-3.358 7.5-7.5s-3.358-7.5-7.5-7.5h-15.463v-15.19h17.445c4.142 0 7.5-3.358 7.5-7.5s-3.358-7.5-7.5-7.5h-24.945c-4.142 0-7.5 3.358-7.5 7.5v61.546c0 4.142 3.358 7.5 7.5 7.5z"/><path d="m204.368 294.5c12.945 0 23.813-8.251 25.843-19.619 1.525-8.545-2.366-19.712-17.864-25.429-7.657-2.824-14.783-5.901-16.926-6.84-1.813-1.436-1.754-3.449-1.634-4.286.164-1.142.989-3.931 5.107-5.171 8.861-2.668 17.052 3.798 17.292 3.99 3.17 2.631 7.875 2.212 10.53-.946 2.665-3.171 2.255-7.902-.916-10.567-.581-.488-14.423-11.904-31.233-6.839-8.465 2.549-14.453 9.217-15.628 17.402-1.102 7.673 2.224 15.054 8.679 19.263.332.216.679.405 1.041.566.358.16 8.889 3.958 18.497 7.501 2.777 1.024 9.145 3.925 8.289 8.719-.637 3.566-4.954 7.255-11.077 7.255-6.232 0-12.231-2.515-16.048-6.727-2.781-3.069-7.524-3.302-10.594-.521-3.069 2.782-3.303 7.524-.521 10.594 6.613 7.299 16.767 11.655 27.163 11.655z"/><path d="m409.998 232.5h9.551v54.5c0 4.142 3.358 7.5 7.5 7.5s7.5-3.358 7.5-7.5v-54.5h9.689c4.142 0 7.5-3.358 7.5-7.5s-3.358-7.5-7.5-7.5h-34.24c-4.142 0-7.5 3.358-7.5 7.5s3.358 7.5 7.5 7.5z"/></g></svg>