<svg id="Capa_1" enable-background="new 0 0 512 512" height="512" viewBox="0 0 512 512" width="512" xmlns="http://www.w3.org/2000/svg"><g><path d="m195 256c0-53.762-43.738-97.5-97.5-97.5-21.149 0-41.271 6.661-58.19 19.264l8.961 12.029c14.31-10.659 31.333-16.293 49.229-16.293 45.491 0 82.5 37.009 82.5 82.5s-37.009 82.5-82.5 82.5-82.5-37.009-82.5-82.5c0-21.393 8.156-41.674 22.964-57.108l-10.823-10.385c-17.502 18.241-27.141 42.21-27.141 67.493 0 53.762 43.738 97.5 97.5 97.5s97.5-43.738 97.5-97.5z"/><path d="m256 195c53.762 0 97.5-43.738 97.5-97.5s-43.738-97.5-97.5-97.5-97.5 43.738-97.5 97.5 43.738 97.5 97.5 97.5zm0-180c45.491 0 82.5 37.009 82.5 82.5s-37.009 82.5-82.5 82.5-82.5-37.009-82.5-82.5 37.009-82.5 82.5-82.5z"/><path d="m256 317c-53.762 0-97.5 43.738-97.5 97.5s43.738 97.5 97.5 97.5c23.039 0 45.399-8.19 62.963-23.062l-9.693-11.447c-14.858 12.58-33.777 19.509-53.27 19.509-45.491 0-82.5-37.009-82.5-82.5s37.009-82.5 82.5-82.5 82.5 37.009 82.5 82.5c0 19.492-6.929 38.41-19.509 53.27l11.448 9.692c14.871-17.565 23.061-39.926 23.061-62.962 0-53.762-43.738-97.5-97.5-97.5z"/><path d="m414.5 158.5c-53.762 0-97.5 43.738-97.5 97.5s43.738 97.5 97.5 97.5 97.5-43.738 97.5-97.5-43.738-97.5-97.5-97.5zm0 180c-45.491 0-82.5-37.009-82.5-82.5s37.009-82.5 82.5-82.5 82.5 37.009 82.5 82.5-37.009 82.5-82.5 82.5z"/><path d="m211 414.5c0 24.813 20.187 45 45 45s45-20.187 45-45-20.187-45-45-45-45 20.187-45 45zm75 0c0 16.542-13.458 30-30 30s-30-13.458-30-30 13.458-30 30-30 30 13.458 30 30z"/><path d="m53.805 277.213c0 6.021 2.334 11.671 6.572 15.909 4.238 4.239 9.888 6.573 15.91 6.573 6.021 0 11.671-2.334 15.909-6.572l5.304-5.304 5.304 5.304c4.238 4.238 9.888 6.572 15.91 6.572s11.672-2.334 15.909-6.572c4.238-4.238 6.572-9.888 6.572-15.91s-2.333-11.672-6.571-15.91l-5.304-5.303 5.303-5.303c4.238-4.238 6.572-9.888 6.572-15.91s-2.334-11.672-6.572-15.909c-4.238-4.239-9.888-6.573-15.91-6.573s-11.672 2.334-15.91 6.572l-5.303 5.303-5.303-5.303c-4.238-4.239-9.888-6.573-15.91-6.573-6.021 0-11.672 2.334-15.909 6.572-4.239 4.238-6.573 9.888-6.573 15.91s2.334 11.672 6.572 15.91l5.304 5.304-5.304 5.304c-4.238 4.238-6.572 9.888-6.572 15.909zm17.179-37.124c-1.405-1.405-2.179-3.288-2.179-5.303s.773-3.898 2.179-5.303c1.405-1.405 3.288-2.178 5.302-2.178 2.015 0 3.898.773 5.303 2.179l15.91 15.91 15.911-15.91c1.405-1.405 3.288-2.178 5.303-2.178s3.898.773 5.303 2.179c1.405 1.404 2.178 3.288 2.178 5.302 0 2.015-.774 3.898-2.179 5.303l-15.908 15.91 15.91 15.911c1.405 1.405 2.178 3.288 2.178 5.303s-.774 3.898-2.179 5.304c-1.404 1.405-3.288 2.178-5.302 2.178-2.015 0-3.898-.773-5.303-2.178l-15.911-15.912-15.91 15.91c-1.405 1.405-3.288 2.178-5.303 2.178s-3.897-.773-5.303-2.179c-1.405-1.405-2.179-3.288-2.179-5.303s.773-3.898 2.178-5.303l15.911-15.909z"/><path d="m219.609 151.815 36.391-20.035 36.39 20.035-7.809-40.801 30.299-28.418-41.216-5.181-17.664-37.598-17.664 37.599-41.218 5.181 30.3 28.418zm28.791-60.547 7.6-16.176 7.6 16.176 17.732 2.229-13.036 12.227 3.359 17.553-15.655-8.62-15.656 8.619 3.36-17.553-13.036-12.227z"/><path d="m361.787 256 52.713 52.714 52.713-52.714-52.713-52.714zm52.713 31.5-31.5-31.5 31.5-31.5 31.5 31.5z"/><path d="m289.073 45.636h15v15h-15z"/><path d="m447.572 204.136h15v15h-15z"/></g></svg>